<?xml version="1.0" standalone="no"?>
<!DOCTYPE svg PUBLIC "-//W3C//DTD SVG 20010904//EN"
 "http://www.w3.org/TR/2001/REC-SVG-20010904/DTD/svg10.dtd">
<svg version="1.0" xmlns="http://www.w3.org/2000/svg"
 width="100.000000pt" height="100.000000pt" viewBox="0 0 1000.000000 1000.000000"
 preserveAspectRatio="xMidYMid meet">

<g transform="translate(0.000000,1000.000000) scale(0.100000,-0.100000)"
fill="#000000" stroke="none">
<path d="M3270 8510 c0 -5 -7 -10 -15 -10 -8 0 -26 -11 -40 -25 -29 -30 -34
-89 -10 -121 8 -10 15 -27 15 -36 0 -16 -11 -18 -100 -18 -55 0 -100 3 -100 8
0 4 -23 23 -50 42 -27 19 -50 38 -50 43 0 4 -29 7 -65 7 -52 0 -70 4 -87 20
-12 11 -33 20 -47 20 -31 0 -91 -21 -91 -32 0 -4 -5 -8 -11 -8 -14 0 -39 -25
-39 -39 0 -6 -4 -11 -8 -11 -5 0 -15 -11 -22 -25 -7 -14 -18 -25 -24 -25 -6 0
-20 -17 -31 -37 -20 -38 -29 -52 -52 -78 -7 -7 -13 -18 -13 -24 0 -6 -3 -11
-7 -11 -5 0 -16 -20 -26 -45 -11 -25 -23 -45 -28 -45 -5 0 -9 -8 -9 -17 -1
-10 -9 -28 -20 -41 -16 -19 -23 -21 -39 -13 -25 14 -81 14 -81 1 0 -5 -7 -10
-16 -10 -18 0 -44 -23 -44 -39 0 -6 -4 -11 -10 -11 -5 0 -10 -6 -10 -14 0 -8
-6 -21 -13 -28 -6 -7 -25 -39 -42 -70 -16 -32 -33 -58 -37 -58 -4 0 -8 -9 -8
-20 0 -11 -4 -20 -9 -20 -5 0 -12 -13 -16 -30 -4 -16 -10 -30 -13 -30 -8 0
-42 -74 -42 -90 0 -6 -4 -10 -10 -10 -5 0 -10 -11 -10 -25 0 -14 -4 -25 -10
-25 -5 0 -10 -8 -10 -17 0 -10 -11 -45 -24 -78 -31 -81 -56 -159 -56 -179 0
-9 -4 -16 -10 -16 -5 0 -10 -15 -10 -32 0 -18 -7 -42 -15 -52 -8 -11 -15 -37
-15 -57 0 -21 -4 -41 -10 -44 -5 -3 -10 -25 -10 -48 -1 -23 -7 -53 -15 -67 -8
-14 -14 -51 -15 -82 0 -32 -4 -58 -10 -58 -6 0 -10 -93 -10 -260 0 -150 4
-260 9 -260 5 0 11 -28 14 -62 5 -77 29 -188 39 -188 5 0 8 -7 8 -16 0 -21 29
-72 58 -102 12 -12 22 -29 22 -37 0 -8 3 -15 8 -15 4 0 15 -27 26 -60 10 -33
22 -60 27 -60 5 0 9 -11 9 -25 0 -14 -4 -25 -10 -25 -6 0 -10 -30 -10 -70 0
-40 4 -70 10 -70 6 0 10 -11 10 -25 0 -14 4 -25 9 -25 5 0 12 -13 16 -30 3
-16 17 -52 31 -80 13 -27 24 -59 24 -70 0 -11 5 -20 10 -20 6 0 10 -11 10 -25
0 -14 4 -25 10 -25 5 0 12 -16 16 -35 3 -19 10 -38 15 -41 5 -3 9 -14 9 -25 0
-10 4 -19 9 -19 11 0 24 -82 15 -103 -3 -9 -21 -19 -40 -23 -19 -3 -34 -10
-34 -14 0 -4 -11 -11 -25 -14 -27 -7 -75 -48 -75 -64 0 -6 -6 -12 -12 -15 -16
-5 -14 -160 2 -165 5 -2 10 -19 10 -38 0 -19 4 -34 8 -34 5 0 16 -18 26 -40
10 -23 29 -52 42 -65 13 -13 24 -29 24 -35 0 -5 5 -10 10 -10 6 0 10 -6 10
-13 0 -15 33 -51 89 -97 24 -19 49 -41 56 -47 8 -7 23 -13 34 -13 12 0 21 -5
21 -11 0 -16 31 -38 53 -39 9 0 17 -4 17 -9 0 -5 13 -12 30 -16 16 -4 32 -11
35 -16 4 -5 13 -9 22 -9 19 0 42 -28 43 -52 0 -10 5 -18 10 -18 6 0 10 -11 10
-25 0 -14 5 -25 10 -25 6 0 10 -6 10 -12 0 -7 14 -40 30 -73 16 -33 30 -66 30
-72 0 -7 5 -13 10 -13 6 0 10 -11 10 -25 0 -14 5 -25 10 -25 6 0 10 -6 10 -14
0 -8 6 -21 13 -28 6 -7 26 -41 42 -75 17 -35 33 -63 38 -63 4 0 7 -6 7 -14 0
-14 29 -75 40 -86 15 -14 40 -61 40 -75 0 -8 5 -15 10 -15 6 0 10 -9 10 -20 0
-12 11 -33 25 -48 14 -15 25 -32 25 -39 0 -7 5 -13 10 -13 6 0 10 -7 10 -15 0
-8 4 -15 10 -15 5 0 12 -11 16 -25 3 -14 10 -25 14 -25 5 0 11 -9 15 -19 3
-10 17 -31 32 -45 32 -32 27 -34 -102 -40 -112 -5 -185 -14 -200 -26 -5 -4
-25 -11 -42 -15 -18 -3 -33 -11 -33 -16 0 -5 -7 -9 -15 -9 -8 0 -15 -3 -15 -8
0 -4 -8 -12 -19 -17 -74 -39 -101 -57 -101 -65 0 -6 -4 -10 -10 -10 -10 0 -98
-78 -134 -119 -12 -13 -33 -36 -49 -52 -15 -15 -27 -31 -27 -36 0 -4 -11 -17
-25 -27 -14 -10 -25 -26 -25 -35 0 -9 -9 -22 -19 -28 -11 -7 -28 -29 -37 -50
-10 -21 -28 -48 -41 -60 -13 -12 -23 -31 -23 -43 0 -11 -3 -20 -8 -20 -4 0
-16 -16 -26 -35 -11 -19 -22 -35 -26 -35 -5 0 -11 -11 -14 -25 -4 -14 -11 -25
-16 -25 -6 0 -10 -9 -10 -20 0 -12 -11 -32 -25 -46 -14 -14 -25 -31 -25 -39 0
-8 -4 -15 -9 -15 -5 0 -12 -11 -15 -25 -4 -14 -11 -25 -16 -25 -6 0 -10 -7
-10 -15 0 -8 -4 -15 -10 -15 -5 0 -10 -8 -10 -18 0 -11 -8 -26 -17 -35 -10 -9
-29 -37 -43 -64 -14 -26 -32 -55 -40 -63 -9 -8 -24 -35 -35 -60 -11 -25 -30
-56 -42 -70 -13 -14 -23 -36 -23 -49 0 -13 -8 -31 -18 -40 -11 -9 -27 -34 -36
-56 -32 -74 -49 -105 -58 -105 -4 0 -8 -16 -8 -35 0 -19 -4 -35 -8 -35 -12 0
-42 -56 -42 -78 0 -11 -5 -22 -12 -24 -20 -7 34 -67 174 -195 362 -330 728
-583 1145 -792 79 -39 147 -71 152 -71 4 0 11 21 14 47 3 26 10 49 16 51 6 2
11 26 11 53 0 27 4 49 9 49 4 0 11 27 15 60 4 33 11 60 16 60 6 0 10 23 10 50
0 28 5 50 10 50 6 0 10 20 10 44 0 24 7 60 15 79 8 20 15 55 15 77 0 22 5 40
10 40 6 0 10 11 10 24 0 35 10 56 27 56 18 0 93 -72 93 -89 0 -6 7 -11 15 -11
10 0 15 -10 15 -34 0 -19 5 -36 11 -38 13 -4 14 -189 1 -197 -5 -3 -12 -22
-15 -41 -10 -61 -30 -130 -39 -130 -4 0 -8 -18 -8 -40 0 -22 -4 -40 -10 -40
-5 0 -12 -27 -16 -60 -4 -33 -11 -60 -15 -60 -5 0 -9 -21 -9 -48 l0 -47 108
-41 107 -41 6 31 c3 17 11 44 18 59 6 16 11 42 11 58 0 16 4 37 9 47 5 9 12
25 15 35 5 15 9 16 26 5 11 -7 20 -16 20 -21 0 -8 12 -24 48 -62 17 -18 34
-25 65 -26 63 -2 69 0 102 34 25 27 30 40 29 80 0 26 -6 53 -12 59 -7 7 -12
22 -12 35 0 13 -4 23 -10 23 -5 0 -10 9 -10 20 0 11 -4 20 -10 20 -5 0 -12 11
-16 25 -3 14 -10 25 -15 25 -5 0 -9 5 -9 11 0 6 -7 17 -15 25 -8 9 -15 24 -15
35 0 10 -4 19 -10 19 -5 0 -10 13 -10 29 0 16 -6 31 -12 34 -17 5 -17 189 0
195 7 2 12 27 12 63 0 33 4 59 10 59 6 0 10 17 10 38 0 41 21 110 57 188 23
49 23 54 9 89 -15 34 -51 74 -69 75 -5 0 -15 7 -23 15 -9 8 -24 15 -35 15 -10
0 -19 4 -19 9 0 8 -59 21 -100 21 -30 1 -80 -12 -80 -21 0 -5 -6 -9 -14 -9 -7
0 -16 -10 -20 -22 -12 -48 -3 -128 16 -128 5 0 14 -5 21 -10 7 -6 22 -19 34
-29 20 -16 21 -21 11 -49 -12 -31 -28 -43 -28 -22 0 6 -5 10 -11 10 -6 0 -28
18 -50 40 -22 22 -44 40 -48 40 -5 0 -30 20 -55 45 -26 25 -50 45 -55 45 -4 0
-19 9 -32 20 -84 70 -103 87 -122 107 -41 42 -47 52 -47 88 0 19 -4 35 -10 35
-6 0 -10 40 -10 100 0 60 4 100 10 100 6 0 10 27 10 60 0 33 4 60 9 60 5 0 12
12 15 28 15 63 31 112 37 112 3 0 9 22 13 50 4 27 11 52 16 55 6 3 10 22 10
41 0 19 5 34 10 34 6 0 10 8 10 18 0 9 7 26 15 36 8 11 15 35 15 53 0 18 4 33
8 33 10 0 42 87 42 113 0 9 5 17 10 17 6 0 10 15 10 34 0 19 3 36 8 38 10 4
42 75 42 94 0 8 11 32 25 54 14 22 25 52 25 66 0 40 35 66 79 58 20 -4 38 -10
41 -13 10 -12 81 -41 100 -41 10 0 20 -3 22 -7 6 -16 70 -43 99 -43 16 0 29
-4 29 -10 0 -5 8 -10 18 -10 19 0 107 -32 118 -43 4 -4 22 -7 39 -7 18 0 49
-7 68 -15 20 -8 50 -15 67 -15 16 0 30 -4 30 -10 0 -5 23 -10 51 -10 l50 0 -4
-127 c-4 -148 -27 -363 -39 -363 -4 0 -8 -27 -8 -60 0 -33 -4 -60 -9 -60 -8 0
-28 -103 -38 -197 -2 -29 -8 -53 -13 -53 -4 0 -10 -25 -13 -56 -3 -31 -11 -62
-16 -67 -6 -6 -11 -37 -11 -69 0 -32 -4 -58 -9 -58 -5 0 -12 -24 -14 -53 -8
-81 -31 -205 -39 -213 -5 -4 -8 -21 -8 -38 0 -16 -7 -73 -16 -126 -12 -74 -13
-105 -5 -136 13 -48 49 -94 74 -94 9 0 17 -4 17 -10 0 -5 23 -10 50 -10 28 0
50 5 50 10 0 6 9 10 19 10 20 0 151 121 151 140 0 5 7 10 15 10 8 0 15 5 15
10 0 6 10 22 23 35 34 37 47 54 47 61 0 4 11 17 25 30 14 13 25 26 25 29 0 8
16 27 73 86 26 27 47 54 47 59 0 6 4 10 9 10 5 0 12 8 16 18 3 9 28 42 55 72
28 30 50 59 50 63 0 5 16 23 35 41 19 19 35 36 35 40 0 8 13 24 63 75 20 21
37 42 37 46 0 4 18 25 40 47 22 22 40 44 40 48 0 4 27 35 60 69 33 34 60 67
60 72 0 5 20 29 45 53 25 25 45 47 45 50 0 3 17 23 38 44 55 58 112 122 112
127 0 2 16 20 35 41 19 20 35 41 35 45 0 5 5 9 11 9 15 0 35 22 43 48 4 12 12
22 17 22 5 0 9 5 9 11 0 14 25 39 39 39 6 0 11 7 11 15 0 8 5 15 10 15 6 0 10
6 10 13 0 8 23 37 50 65 28 28 50 56 50 62 0 6 16 26 35 44 19 19 35 39 35 44
0 5 7 12 15 16 8 3 15 13 15 21 0 19 23 45 39 45 6 0 11 7 11 15 0 8 4 15 8
15 4 0 16 15 27 33 10 17 34 46 52 63 18 17 33 34 33 38 0 7 9 19 45 60 21 24
41 52 51 74 4 8 22 28 40 46 19 18 34 36 34 40 0 8 13 24 63 75 20 21 37 42
37 45 0 4 16 24 35 44 19 20 38 45 41 55 3 9 10 17 15 17 5 0 9 7 9 15 0 9 11
26 25 39 14 13 25 28 25 35 0 6 3 11 8 11 4 0 16 16 26 35 11 19 23 35 28 35
4 0 8 5 8 11 0 6 6 16 13 24 6 7 21 25 32 41 11 15 28 35 38 43 9 9 17 23 17
32 0 10 3 19 8 21 12 5 59 72 66 96 4 12 12 22 17 22 5 0 9 7 9 15 0 8 5 15
10 15 6 0 10 11 10 25 0 14 4 25 10 25 5 0 12 17 16 38 4 20 11 43 17 50 13
17 11 315 -2 341 -6 11 -11 32 -11 47 0 34 -41 74 -98 97 -40 16 -44 16 -70 0
-15 -10 -39 -31 -54 -48 -24 -26 -28 -39 -28 -92 0 -38 4 -63 11 -63 7 0 9
-34 5 -102 -6 -123 -15 -198 -25 -198 -5 0 -16 -16 -27 -35 -10 -19 -24 -35
-31 -35 -14 0 -53 35 -53 48 0 4 -11 19 -25 34 -14 15 -25 32 -25 38 0 6 -6
18 -12 25 -32 35 -38 45 -38 60 0 8 -4 15 -10 15 -5 0 -12 16 -16 35 -3 19
-10 35 -15 35 -5 0 -9 7 -9 15 0 8 -4 15 -10 15 -5 0 -10 6 -10 14 0 17 -32
80 -42 84 -5 2 -8 13 -8 25 -1 12 -7 33 -15 47 -8 14 -14 35 -15 48 0 12 -4
22 -9 22 -15 0 -24 109 -11 125 6 8 32 24 56 35 24 12 44 26 44 31 0 5 9 9 21
9 18 0 49 21 49 34 0 6 60 66 66 66 10 0 34 28 34 39 0 6 5 11 10 11 6 0 10 8
10 19 0 10 11 27 25 37 14 10 25 28 25 39 0 12 7 30 15 41 8 10 15 27 15 37 0
9 5 17 10 17 6 0 10 13 10 29 0 33 22 46 50 31 10 -6 34 -10 54 -10 19 0 38
-4 41 -10 3 -5 23 -10 44 -10 21 0 55 -7 74 -15 24 -10 70 -15 132 -15 57 0
95 -4 95 -10 0 -6 28 -10 65 -10 36 0 65 -4 65 -9 0 -9 93 -28 185 -38 28 -3
55 -9 60 -13 6 -4 34 -11 63 -15 28 -4 52 -11 52 -16 0 -5 23 -9 50 -9 28 0
50 -3 50 -8 0 -8 59 -30 103 -39 15 -3 27 -9 27 -13 0 -4 16 -11 35 -14 19 -4
35 -11 35 -16 0 -6 11 -10 25 -10 14 0 25 -4 25 -10 0 -5 6 -10 14 -10 7 0 19
-7 26 -15 7 -8 20 -15 29 -15 9 0 29 -11 45 -25 16 -14 35 -25 43 -25 7 0 13
-4 13 -10 0 -5 7 -10 15 -10 8 0 15 -4 15 -9 0 -5 9 -12 19 -16 11 -3 23 -15
26 -25 3 -10 14 -21 23 -24 22 -7 52 -60 52 -91 0 -13 5 -27 10 -30 12 -7 14
-188 3 -199 -5 -4 -13 -92 -18 -194 -10 -183 -4 -377 13 -417 14 -32 34 -88
39 -112 3 -13 9 -23 14 -23 5 0 9 -7 9 -16 0 -8 6 -22 13 -29 29 -33 37 -45
37 -55 0 -5 4 -10 8 -10 4 0 16 -14 26 -31 10 -16 30 -43 44 -58 43 -45 72
-84 72 -98 0 -7 5 -13 10 -13 6 0 10 -7 10 -15 0 -8 4 -15 10 -15 13 0 23 -44
15 -69 -3 -12 -14 -21 -24 -21 -9 0 -26 -7 -37 -15 -10 -8 -29 -15 -41 -15
-13 0 -23 -4 -23 -10 0 -5 -6 -10 -13 -10 -7 0 -24 -11 -39 -25 -15 -14 -32
-25 -39 -25 -27 0 -149 -34 -149 -42 0 -4 -11 -8 -25 -8 -14 0 -25 -4 -25 -10
0 -5 -9 -10 -21 -10 -11 0 -27 -6 -34 -12 -32 -29 -74 -57 -97 -64 -10 -4 -18
-10 -18 -15 0 -5 -7 -9 -15 -9 -8 0 -15 -4 -15 -10 0 -5 -11 -12 -25 -16 -14
-3 -25 -9 -25 -13 0 -4 -18 -16 -40 -27 -22 -10 -40 -22 -40 -26 0 -5 -9 -8
-19 -8 -11 0 -21 -3 -23 -7 -1 -5 -33 -24 -70 -43 -37 -19 -68 -38 -68 -42 0
-5 -7 -8 -15 -8 -9 0 -21 -5 -28 -10 -48 -40 -66 -54 -99 -72 -21 -12 -38 -25
-38 -30 0 -4 -7 -8 -15 -8 -15 0 -95 -46 -105 -60 -3 -4 -15 -10 -27 -14 -13
-4 -23 -12 -23 -17 0 -5 -10 -9 -21 -9 -12 0 -32 -11 -45 -25 -13 -14 -27 -25
-31 -25 -5 0 -20 -11 -35 -25 -15 -14 -36 -25 -48 -25 -11 0 -20 -4 -20 -9 0
-11 -160 -91 -183 -91 -9 0 -17 -4 -17 -10 0 -5 -11 -10 -25 -10 -14 0 -25 -4
-25 -9 0 -5 -19 -12 -42 -16 -24 -4 -50 -11 -58 -15 -15 -8 -62 -12 -267 -24
-75 -5 -163 -31 -163 -48 0 -5 -7 -8 -15 -8 -8 0 -15 -6 -15 -14 0 -8 -6 -16
-14 -19 -16 -6 -86 -111 -86 -127 0 -6 -4 -10 -10 -10 -5 0 -10 -9 -10 -19 0
-22 -31 -81 -42 -81 -5 0 -8 -9 -8 -19 0 -22 -31 -81 -42 -81 -5 0 -8 -11 -8
-25 0 -14 -4 -25 -10 -25 -5 0 -10 -7 -10 -15 0 -8 -11 -25 -25 -39 -14 -14
-25 -30 -25 -36 0 -5 -7 -10 -15 -10 -8 0 -15 -5 -15 -11 0 -7 -10 -20 -22
-31 -13 -11 -37 -32 -54 -47 -16 -16 -61 -47 -100 -69 -38 -23 -74 -46 -81
-52 -7 -5 -17 -10 -23 -10 -5 0 -10 -4 -10 -10 0 -5 -7 -10 -15 -10 -8 0 -15
-3 -15 -7 0 -5 -27 -24 -60 -42 -33 -19 -60 -39 -60 -43 0 -4 -6 -8 -14 -8
-17 0 -80 -32 -84 -42 -2 -5 -15 -8 -28 -8 -19 0 -24 5 -24 24 0 14 7 31 15
40 8 8 15 31 15 50 0 20 5 36 10 36 6 0 10 23 10 50 0 28 -4 50 -9 50 -5 0
-12 8 -15 18 -10 32 -103 63 -186 63 -29 0 -135 -22 -152 -31 -10 -6 -31 -10
-48 -10 -16 0 -30 -4 -30 -10 0 -5 -5 -10 -11 -10 -27 0 -59 -59 -59 -109 0
-28 7 -45 26 -65 25 -24 33 -26 110 -26 46 0 84 -4 84 -8 0 -5 -7 -17 -15 -28
-8 -10 -15 -38 -15 -61 0 -24 -4 -43 -9 -43 -5 0 -11 -10 -14 -22 -13 -57 -35
-99 -63 -120 -16 -12 -30 -26 -32 -30 -2 -5 -12 -8 -23 -8 -10 0 -19 -4 -19
-9 0 -5 -10 -11 -23 -15 -12 -3 -32 -13 -43 -23 -27 -24 -55 -42 -76 -49 -10
-4 -18 -9 -18 -13 0 -4 -16 -15 -35 -25 -19 -11 -35 -23 -35 -28 0 -4 -7 -8
-15 -8 -8 0 -25 -11 -39 -25 -14 -14 -30 -25 -36 -25 -6 0 -18 -6 -25 -12 -26
-23 -40 -33 -70 -48 -16 -8 -39 -24 -50 -36 -24 -25 -100 -74 -116 -74 -6 0
-17 -6 -24 -13 -33 -29 -45 -37 -55 -37 -5 0 -10 -5 -10 -11 0 -6 -7 -17 -15
-25 -16 -17 -21 -94 -6 -94 5 0 12 -8 15 -17 3 -10 20 -26 37 -36 32 -18 89
-23 89 -8 0 5 16 12 35 15 19 4 35 11 35 15 0 5 10 11 23 15 12 3 32 14 44 26
12 11 27 20 33 20 6 0 17 6 24 12 7 7 27 24 45 38 18 14 39 31 46 38 8 6 23
12 34 12 12 0 21 5 21 10 0 6 7 10 15 10 8 0 15 6 15 13 0 6 15 19 33 26 17 8
38 21 45 28 7 7 20 13 28 13 8 0 14 5 14 10 0 6 7 10 15 10 8 0 15 5 15 11 0
5 5 7 10 4 15 -9 12 -71 -5 -112 -8 -19 -15 -48 -15 -64 0 -15 -4 -31 -10 -34
-6 -3 -10 -22 -10 -41 0 -19 -4 -34 -10 -34 -5 0 -10 -15 -10 -32 0 -18 -7
-42 -15 -52 -8 -11 -15 -37 -15 -57 0 -21 -4 -41 -10 -44 -5 -3 -10 -22 -10
-41 0 -19 -7 -51 -15 -71 -8 -19 -15 -53 -15 -74 0 -22 -4 -39 -10 -39 -5 0
-10 -15 -10 -34 l0 -34 103 -9 c123 -10 136 -8 143 26 3 14 9 37 14 51 4 14
13 45 20 70 6 25 18 65 26 90 8 25 14 57 14 73 0 15 5 27 10 27 6 0 10 22 10
49 0 28 5 51 12 53 6 2 13 30 16 61 2 32 8 60 13 63 5 3 9 18 9 33 0 16 7 48
15 71 8 23 15 53 15 66 0 13 5 24 10 24 6 0 10 18 10 40 0 22 4 40 9 40 5 0
11 18 15 41 7 42 29 85 56 106 8 7 43 27 78 44 34 17 62 35 62 40 0 5 11 9 25
9 14 0 25 4 25 9 0 5 11 12 25 15 14 4 25 11 25 16 0 6 11 10 25 10 14 0 25 4
25 10 0 5 11 12 25 16 14 3 25 10 25 15 0 5 9 9 20 9 11 0 20 4 20 9 0 5 8 11
18 15 18 6 54 27 62 37 3 4 15 9 28 13 12 4 22 12 22 17 0 5 7 9 15 9 8 0 15
5 15 10 0 6 5 10 10 10 16 0 12 -109 -5 -126 -8 -9 -15 -29 -15 -47 0 -17 -4
-44 -10 -61 -16 -52 -52 -199 -57 -233 -3 -18 -9 -33 -14 -33 -5 0 -9 -11 -9
-25 0 -14 -7 -42 -15 -62 -8 -19 -15 -48 -15 -63 0 -14 -3 -30 -6 -33 -10 -10
-43 -109 -44 -129 0 -10 -4 -18 -10 -18 -5 0 -10 -22 -10 -48 0 -27 -6 -57
-15 -68 -8 -10 -15 -31 -15 -45 0 -14 -11 -53 -25 -87 -14 -34 -25 -71 -25
-82 0 -11 -4 -20 -10 -20 -5 0 -10 -22 -10 -50 0 -27 -4 -50 -10 -50 -5 0 -10
-9 -10 -21 0 -20 3 -21 108 -14 408 24 772 86 1142 191 138 40 157 48 187 80
18 20 33 43 33 50 0 8 5 14 10 14 6 0 10 7 10 15 0 8 11 25 25 39 14 14 25 34
25 46 0 11 4 20 10 20 5 0 12 11 16 25 3 14 9 25 14 25 4 0 15 16 26 35 10 19
22 35 26 35 5 0 8 4 8 9 0 11 82 135 93 139 4 2 7 8 7 13 0 6 11 21 25 35 14
14 25 30 25 36 0 6 16 25 35 44 19 18 35 39 35 46 0 7 18 33 40 58 57 65 60
68 60 78 0 5 16 23 35 39 19 17 35 36 35 42 0 6 7 14 15 17 8 4 15 10 15 15 0
12 258 269 270 269 5 0 32 23 60 50 28 28 57 50 65 50 8 0 15 5 15 10 0 6 4
10 10 10 5 0 21 10 34 21 28 24 62 46 89 55 9 3 17 10 17 15 0 5 7 9 15 9 8 0
15 4 15 10 0 5 11 12 25 16 14 3 25 9 25 13 0 3 18 15 40 25 22 11 40 23 40
28 0 4 13 8 29 8 16 0 31 3 33 8 4 10 67 42 84 42 8 0 14 5 14 10 0 6 10 10
23 10 13 0 32 7 43 15 10 8 27 15 37 15 9 0 17 5 17 10 0 6 12 10 26 10 14 0
35 5 47 12 37 20 228 57 330 65 37 2 67 9 67 14 0 5 33 9 74 9 50 0 76 4 80
13 5 10 7 10 12 0 3 -7 12 -13 20 -13 11 0 14 -15 14 -61 l0 -62 55 67 c126
155 297 405 412 606 132 230 146 276 98 328 -14 15 -25 30 -25 35 0 4 -11 25
-25 47 -14 22 -25 46 -25 55 0 8 -4 15 -10 15 -5 0 -10 7 -10 15 0 8 -4 15
-10 15 -5 0 -12 11 -16 25 -3 14 -10 25 -15 25 -5 0 -9 6 -9 14 0 7 -7 19 -15
26 -8 7 -15 21 -15 31 0 11 -4 19 -10 19 -5 0 -10 5 -10 10 0 6 -12 23 -26 38
-14 15 -33 39 -42 55 -9 15 -20 27 -24 27 -4 0 -8 9 -8 20 0 11 -4 20 -10 20
-5 0 -10 7 -10 15 0 8 -7 15 -15 15 -8 0 -15 7 -15 15 0 8 -4 15 -10 15 -5 0
-10 6 -10 14 0 7 -7 19 -15 26 -8 7 -15 18 -15 26 0 7 -16 29 -35 49 -19 21
-37 46 -40 56 -4 10 -11 19 -16 19 -5 0 -9 5 -9 12 0 6 -20 30 -44 54 -24 23
-47 51 -51 63 -3 11 -11 21 -16 21 -5 0 -9 7 -9 15 0 8 -5 15 -10 15 -13 0
-110 97 -110 110 0 6 -5 10 -11 10 -6 0 -31 20 -56 45 -25 24 -54 47 -64 50
-11 4 -19 11 -19 16 0 5 -5 9 -10 9 -6 0 -22 11 -36 25 -14 14 -31 25 -39 25
-8 0 -15 4 -15 9 0 5 -8 12 -18 15 -10 4 -27 14 -38 24 -10 9 -39 26 -64 37
-25 11 -47 22 -50 26 -3 3 -24 9 -47 13 -50 7 -90 24 -96 40 -2 6 0 47 6 91 5
44 10 161 11 260 1 168 -1 183 -22 224 -12 25 -22 51 -22 58 0 7 -4 13 -9 13
-5 0 -13 9 -16 21 -9 26 -120 139 -162 164 -18 11 -33 23 -33 27 0 4 -7 8 -15
8 -8 0 -15 4 -15 10 0 5 -11 12 -25 16 -14 3 -25 9 -25 13 0 4 -20 15 -45 25
-25 11 -45 23 -45 28 0 4 -11 8 -24 8 -13 0 -26 3 -28 8 -4 10 -67 42 -83 42
-7 0 -26 7 -41 15 -16 8 -37 15 -46 15 -9 0 -20 5 -23 10 -3 6 -17 10 -31 10
-13 0 -24 5 -24 10 0 6 -16 10 -36 10 -19 0 -45 5 -57 12 -12 6 -42 15 -67 19
-25 5 -79 15 -120 24 -41 9 -99 19 -127 22 -29 3 -53 9 -53 13 0 5 -30 11 -67
14 -162 12 -289 27 -308 36 -19 9 -43 12 -190 25 -107 10 -103 7 -108 77 -7
83 -27 178 -38 178 -5 0 -9 16 -9 35 0 19 -4 35 -10 35 -5 0 -10 6 -10 14 0 8
-4 16 -8 18 -4 2 -18 20 -31 41 -12 20 -27 37 -32 37 -5 0 -9 8 -9 18 0 10
-15 26 -32 37 -18 10 -47 34 -64 52 -17 18 -39 33 -48 33 -47 0 -74 82 -76
230 -1 76 -5 117 -13 123 -9 7 -9 10 1 14 14 5 17 53 3 53 -5 0 -12 33 -14 73
-7 87 -26 215 -38 242 -4 11 -10 40 -13 65 -10 83 -30 180 -38 180 -4 0 -8 23
-8 50 0 28 -4 50 -9 50 -5 0 -12 23 -16 50 -4 28 -11 50 -16 50 -5 0 -9 7 -9
16 0 24 -33 114 -42 114 -5 0 -8 16 -8 35 0 19 -4 35 -10 35 -5 0 -10 6 -10
14 0 16 -29 73 -47 94 -7 7 -13 16 -13 20 0 20 -54 64 -94 78 l-46 16 0 59 c0
32 -4 59 -9 59 -5 0 -12 9 -16 19 -3 10 -21 35 -40 56 -19 20 -35 39 -35 41 0
7 -48 54 -55 54 -3 0 -20 15 -38 34 -18 18 -43 36 -55 40 -12 4 -22 12 -22 17
0 5 -7 9 -15 9 -8 0 -25 11 -39 25 -14 14 -34 25 -46 25 -11 0 -20 4 -20 9 0
5 -11 12 -25 15 -14 4 -25 11 -25 16 0 6 -7 10 -15 10 -8 0 -15 4 -15 9 0 5
-16 12 -35 15 -19 4 -35 11 -35 16 0 6 -7 10 -15 10 -8 0 -15 5 -15 10 0 6
-16 10 -35 10 -19 0 -35 4 -35 10 0 5 -11 12 -25 16 -14 3 -25 10 -25 15 0 5
-15 9 -33 9 -18 0 -42 7 -53 15 -10 8 -29 15 -41 15 -13 0 -23 5 -23 10 0 6
-16 10 -35 10 -19 0 -35 4 -35 9 0 5 -25 13 -55 16 -30 4 -58 11 -61 16 -3 5
-27 9 -54 9 -27 0 -51 4 -55 9 -3 5 -34 13 -70 16 -36 4 -68 11 -71 16 -3 5
-63 9 -133 9 -123 0 -129 -1 -155 -25 -15 -14 -33 -25 -40 -25 -7 0 -19 11
-26 25 -7 14 -19 25 -27 25 -7 0 -13 4 -13 9 0 12 -42 20 -175 35 -60 7 -117
15 -125 18 -8 3 -45 14 -82 23 -38 9 -68 21 -68 26 0 5 -20 9 -45 9 -25 0 -45
-4 -45 -10z m1126 -1315 c3 -14 10 -25 15 -25 5 0 9 -16 9 -35 0 -19 4 -35 8
-35 4 0 16 -26 26 -57 10 -32 25 -75 32 -96 8 -20 14 -51 14 -67 0 -17 5 -30
10 -30 6 0 10 -11 10 -25 0 -14 4 -25 9 -25 5 0 12 -19 15 -42 7 -47 28 -113
39 -124 4 -4 7 -18 7 -30 0 -12 7 -29 15 -38 8 -8 15 -22 15 -31 0 -23 87
-105 111 -105 11 0 27 -4 37 -9 23 -12 121 -41 138 -41 8 0 14 -4 14 -10 0 -5
7 -10 17 -10 18 0 89 -73 98 -101 4 -11 11 -19 16 -19 5 0 9 -11 9 -25 0 -14
4 -25 8 -25 8 0 36 -80 47 -135 23 -110 29 -135 37 -135 4 0 8 -18 8 -40 l0
-40 -210 0 c-133 0 -210 -4 -210 -10 0 -15 -67 -12 -73 3 -4 9 -7 9 -14 0 -6
-8 -62 -12 -188 -14 -99 -1 -184 -5 -190 -8 -9 -6 -53 -20 -160 -51 -16 -5
-47 -12 -67 -16 -21 -3 -38 -10 -38 -15 0 -5 -22 -9 -50 -9 -27 0 -50 -4 -50
-10 0 -5 -10 -10 -22 -10 -13 0 -32 -7 -42 -15 -11 -8 -29 -15 -40 -15 -12 0
-43 -12 -71 -25 -27 -14 -60 -25 -72 -25 -13 0 -23 -4 -23 -10 0 -5 -9 -10
-19 -10 -11 0 -22 -4 -26 -9 -3 -5 -18 -12 -35 -16 -16 -3 -52 -17 -80 -31
-27 -13 -59 -24 -70 -24 -11 0 -20 -4 -20 -10 0 -5 -11 -10 -25 -10 -14 0 -25
-4 -25 -9 0 -5 -15 -14 -33 -20 -29 -10 -67 -42 -67 -57 0 -12 -30 -34 -47
-34 -16 0 -59 -23 -73 -40 -16 -18 -62 -29 -87 -19 -20 7 -36 6 -65 -6 -21 -8
-52 -15 -68 -15 -17 0 -30 -4 -30 -10 0 -5 -12 -10 -27 -10 -28 -1 -128 -32
-140 -44 -3 -3 -16 -6 -29 -6 -23 0 -86 -29 -92 -42 -2 -5 -21 -8 -43 -8 -21
0 -39 -4 -39 -9 0 -10 -78 -41 -102 -41 -9 0 -18 -6 -21 -12 -2 -8 -8 -9 -13
-4 -5 5 -4 11 4 13 6 3 12 14 12 26 0 13 13 33 31 47 17 14 49 42 69 63 21 20
42 37 47 37 4 0 20 11 35 25 15 14 32 25 38 25 5 0 10 4 10 10 0 5 11 12 25
16 14 3 25 10 25 15 0 5 7 9 15 9 8 0 23 4 33 10 9 5 34 17 55 26 28 12 37 22
37 40 0 13 5 24 10 24 6 0 10 14 10 31 0 42 -32 69 -81 69 -20 0 -40 6 -42 13
-4 8 -8 8 -14 2 -4 -5 -33 -23 -63 -39 -30 -16 -62 -35 -71 -42 -8 -8 -21 -14
-27 -14 -7 0 -12 -4 -12 -10 0 -5 -7 -10 -15 -10 -8 0 -15 -4 -15 -10 0 -5 -6
-10 -13 -10 -8 0 -27 -11 -43 -25 -16 -14 -37 -28 -46 -31 -10 -3 -18 -10 -18
-15 0 -5 -15 -9 -32 -9 -26 0 -37 6 -50 31 -10 17 -18 44 -18 60 0 16 -4 29
-9 29 -5 0 -12 21 -16 48 -4 26 -10 49 -13 52 -15 11 -62 111 -62 130 0 11 -4
20 -10 20 -5 0 -10 8 -10 19 0 10 -7 35 -15 54 -22 52 -19 85 10 111 18 16 25
34 25 59 0 31 23 92 41 107 3 3 9 16 12 30 3 14 15 35 27 47 11 12 20 30 20
40 1 10 19 36 40 58 22 22 40 45 40 50 0 6 9 17 20 25 11 8 20 19 20 26 0 6
11 17 25 24 14 7 25 17 25 22 0 10 75 88 85 88 3 0 29 23 57 50 28 28 57 50
65 50 7 0 13 5 13 10 0 6 5 10 10 10 10 0 22 8 55 38 7 6 18 12 24 12 6 0 11
4 11 9 0 5 10 13 23 17 12 4 24 9 27 13 8 10 44 31 63 37 9 4 17 10 17 15 0 5
6 9 14 9 14 0 75 29 86 40 3 3 31 14 63 25 31 11 57 23 57 27 0 4 14 8 30 8
17 0 30 3 30 8 0 9 64 32 110 39 19 3 37 9 40 12 9 12 95 41 123 41 15 0 27 5
27 10 0 6 10 10 23 10 12 0 56 10 97 22 41 11 91 23 110 25 19 3 40 9 45 13 6
5 36 11 68 15 31 4 57 11 57 16 0 5 27 9 60 9 33 0 60 4 60 10 0 6 17 10 38
10 36 0 157 25 197 41 11 4 39 11 62 14 24 4 45 11 49 16 3 5 18 9 34 9 23 0
31 -5 36 -25z m597 -68 c7 -7 17 -22 23 -32 6 -11 31 -32 55 -47 39 -23 55
-27 137 -27 67 -1 98 -5 108 -15 8 -8 14 -17 14 -21 0 -6 10 -19 38 -50 6 -7
12 -18 12 -24 0 -6 11 -11 25 -11 14 0 25 -4 25 -9 0 -18 63 -31 116 -25 53 7
54 6 54 -20 0 -14 4 -26 8 -26 10 0 42 -236 42 -305 0 -28 4 -55 10 -61 5 -5
13 -82 16 -171 l7 -161 -56 -26 c-31 -14 -68 -28 -82 -32 -14 -3 -25 -10 -25
-15 0 -5 -7 -9 -16 -9 -8 0 -21 -6 -28 -12 -37 -36 -66 -57 -66 -48 0 6 -7 10
-15 10 -10 0 -15 11 -15 35 0 19 -4 35 -10 35 -5 0 -10 12 -10 28 0 41 -77
252 -92 252 -4 0 -8 9 -8 20 0 11 -4 20 -10 20 -5 0 -12 11 -16 25 -3 14 -10
25 -15 25 -5 0 -9 5 -9 11 0 14 -25 39 -39 39 -6 0 -11 4 -11 9 0 12 -59 71
-71 71 -5 0 -9 5 -9 10 0 6 -13 10 -30 10 -16 0 -30 4 -30 9 0 5 -35 17 -77
27 -43 10 -84 24 -91 31 -7 7 -17 13 -21 13 -10 0 -41 79 -41 103 0 9 -4 17
-10 17 -5 0 -10 15 -10 34 0 18 -7 39 -15 46 -9 7 -15 29 -15 51 0 22 -4 39
-10 39 -5 0 -10 16 -10 35 0 35 0 35 45 35 24 0 61 8 82 17 36 17 83 59 83 76
0 4 7 7 15 7 8 0 15 5 15 10 0 14 19 12 33 -3z m850 -1274 c18 -10 34 -21 35
-25 2 -5 12 -8 23 -8 10 0 19 -5 19 -10 0 -6 11 -23 25 -38 14 -15 25 -31 25
-36 0 -5 11 -19 25 -32 16 -15 25 -34 25 -54 0 -16 5 -30 10 -30 6 0 10 -43
10 -110 0 -67 -4 -110 -10 -110 -5 0 -10 -22 -10 -50 0 -27 -3 -50 -8 -50 -4
0 -16 -17 -26 -37 -40 -81 -51 -99 -83 -130 -18 -18 -33 -37 -33 -43 0 -5 -7
-10 -15 -10 -8 0 -15 -4 -15 -10 0 -5 -6 -10 -14 -10 -7 0 -34 -11 -60 -25
-42 -22 -59 -25 -152 -25 -103 0 -134 -9 -134 -38 0 -6 -7 -13 -16 -16 -13 -5
-16 -17 -12 -63 3 -31 10 -59 16 -61 7 -2 12 -12 12 -22 0 -10 9 -22 20 -25
11 -3 20 -11 20 -16 0 -5 7 -9 16 -9 13 0 15 -12 11 -77 -3 -43 -11 -118 -19
-168 -8 -49 -13 -97 -11 -105 2 -9 0 -34 -5 -58 -8 -33 -6 -49 7 -74 39 -76
42 -78 99 -78 48 0 82 14 82 35 0 10 28 35 39 35 6 0 11 -7 11 -15 0 -8 5 -15
10 -15 6 0 10 -8 10 -18 0 -10 7 -27 15 -38 8 -10 15 -27 15 -36 0 -10 4 -18
9 -18 5 0 11 -8 15 -17 7 -22 25 -50 49 -77 9 -11 17 -23 17 -27 0 -4 18 -24
40 -45 56 -54 68 -64 80 -64 5 0 10 -11 10 -25 0 -16 -6 -25 -15 -25 -8 0 -15
-3 -15 -8 0 -4 -16 -16 -35 -26 -21 -11 -35 -27 -35 -38 0 -10 -4 -18 -10 -18
-5 0 -10 -5 -10 -11 0 -7 -10 -21 -22 -33 -31 -28 -58 -72 -58 -91 0 -9 -6
-23 -12 -30 -28 -31 -38 -44 -38 -51 0 -4 -16 -22 -35 -41 -19 -19 -35 -38
-35 -43 0 -8 -19 -32 -72 -92 -16 -16 -28 -34 -28 -39 0 -6 -11 -22 -25 -37
-14 -15 -25 -30 -25 -34 0 -4 -16 -22 -35 -41 -19 -19 -35 -37 -35 -40 0 -4
-18 -26 -40 -49 -22 -24 -40 -46 -40 -50 0 -5 -16 -25 -35 -45 -19 -20 -35
-43 -35 -50 0 -7 -4 -13 -8 -13 -5 0 -15 -11 -22 -25 -7 -14 -19 -25 -27 -25
-7 0 -13 -5 -13 -10 0 -10 -8 -22 -37 -55 -7 -7 -13 -16 -13 -20 0 -10 -28
-35 -39 -35 -6 0 -11 -7 -11 -15 0 -8 -4 -15 -9 -15 -5 0 -12 -8 -16 -19 -3
-10 -26 -39 -50 -64 -25 -25 -45 -48 -45 -51 0 -8 -14 -24 -62 -75 -21 -21
-38 -42 -38 -46 0 -4 -22 -29 -50 -56 -27 -27 -50 -56 -50 -64 0 -8 -7 -15
-15 -15 -8 0 -15 -3 -15 -7 0 -5 -20 -29 -45 -55 -25 -27 -45 -52 -45 -58 0
-5 -4 -10 -8 -10 -5 0 -18 -9 -31 -21 -12 -12 -25 -18 -29 -14 -4 3 -8 71 -10
151 -3 79 -8 144 -13 144 -5 0 -9 11 -9 25 0 14 6 25 13 25 9 0 9 2 0 8 -8 5
-13 52 -14 156 0 81 1 149 3 150 10 10 94 46 105 46 7 0 13 5 13 10 0 6 7 10
15 10 8 0 15 4 15 9 0 5 10 13 22 17 20 6 31 13 63 42 7 6 17 12 20 12 4 0 33
27 65 60 32 33 63 60 69 60 6 0 11 4 11 10 0 5 32 41 70 79 39 39 70 73 70 76
0 10 49 55 60 55 5 0 10 7 10 15 0 8 11 25 25 39 14 14 25 30 25 36 0 5 6 10
13 10 8 0 22 16 33 35 10 19 22 35 26 35 5 0 8 5 8 10 0 6 11 22 25 36 14 14
25 31 25 39 0 8 5 15 10 15 6 0 10 7 10 15 0 8 11 25 25 39 14 14 25 30 25 36
0 13 14 32 63 78 21 21 37 46 37 59 0 13 5 23 10 23 6 0 10 16 10 35 0 19 -4
35 -10 35 -5 0 -10 5 -10 11 0 25 -30 39 -85 39 -53 0 -59 -3 -96 -40 -21 -21
-39 -42 -39 -45 0 -3 -12 -19 -27 -34 -44 -46 -53 -59 -53 -76 0 -9 -16 -31
-35 -49 -19 -19 -35 -36 -35 -40 0 -7 -10 -20 -37 -51 -7 -7 -13 -16 -13 -20
0 -3 -11 -18 -25 -33 -14 -15 -25 -30 -25 -33 0 -4 -38 -46 -85 -94 -47 -48
-85 -91 -85 -95 0 -14 -191 -200 -206 -200 -8 0 -14 -4 -14 -9 0 -5 -13 -12
-30 -16 -16 -4 -30 -11 -30 -16 0 -5 -9 -9 -20 -9 -11 0 -20 -4 -20 -9 0 -5
-10 -11 -22 -14 -28 -6 -91 -30 -98 -37 -13 -13 -80 -33 -122 -37 -27 -3 -48
-9 -48 -14 0 -5 -63 -9 -140 -9 -87 0 -140 4 -140 10 0 6 -17 10 -39 10 -21 0
-58 7 -81 15 -23 8 -55 15 -69 15 -15 0 -47 9 -70 21 -24 11 -59 23 -77 26
-19 3 -34 10 -34 14 0 5 -20 9 -45 9 -25 0 -45 4 -45 8 0 11 -52 37 -107 53
-24 7 -43 18 -43 26 0 8 -12 13 -35 13 -19 0 -35 5 -35 10 0 6 -7 10 -15 10
-8 0 -15 3 -15 8 0 4 -27 20 -60 35 -33 16 -60 35 -60 42 0 7 -8 15 -17 19
-37 12 -83 48 -83 65 0 6 -4 11 -9 11 -5 0 -12 8 -15 18 -4 10 -14 27 -24 38
-28 30 -52 72 -52 89 0 8 -3 15 -7 15 -5 0 -17 18 -27 40 -11 22 -23 40 -28
40 -4 0 -8 11 -8 25 0 14 -4 25 -10 25 -5 0 -12 11 -16 25 -3 14 -10 25 -15
25 -5 0 -9 9 -9 20 0 11 -4 20 -9 20 -5 0 -12 12 -15 26 -4 14 -16 35 -27 47
-11 12 -23 34 -26 50 -3 15 -9 27 -14 27 -5 0 -9 11 -9 25 0 14 -4 25 -10 25
-5 0 -10 6 -10 14 0 7 -7 19 -15 26 -8 7 -15 23 -15 36 0 13 -4 24 -8 24 -4 0
-14 16 -21 35 -16 46 1 65 58 65 23 0 41 4 41 8 0 4 25 16 55 27 30 10 55 22
55 26 0 4 11 10 25 13 14 4 25 11 25 16 0 6 7 10 16 10 9 0 27 11 40 25 13 14
26 25 29 25 4 0 13 6 20 13 62 55 70 50 79 -52 4 -45 11 -81 16 -81 4 0 11
-11 14 -25 4 -14 11 -25 16 -25 6 0 10 -5 10 -11 0 -19 53 -59 87 -65 56 -10
212 14 233 36 13 14 61 40 74 40 8 0 16 3 18 8 2 4 19 15 39 25 27 14 40 29
50 60 10 31 11 41 1 45 -7 2 -12 8 -12 14 0 19 -34 37 -67 38 -18 0 -33 -3
-33 -7 0 -5 -20 -16 -45 -26 -25 -11 -45 -23 -45 -28 0 -5 -11 -9 -25 -9 -14
0 -25 -4 -25 -10 0 -5 -17 -12 -37 -15 -21 -3 -48 -8 -61 -11 -15 -3 -25 1
-29 13 -4 10 -10 21 -15 24 -5 3 -10 138 -11 300 -2 189 -8 322 -17 372 -7 42
-10 81 -5 85 4 4 10 1 12 -6 3 -7 11 -19 19 -26 8 -8 14 -21 14 -28 0 -7 11
-25 25 -40 14 -15 25 -30 25 -33 0 -6 11 -20 38 -50 6 -7 12 -18 12 -24 0 -6
5 -11 10 -11 9 0 53 -36 106 -87 7 -7 17 -13 23 -13 6 0 11 -4 11 -10 0 -5 7
-10 15 -10 8 0 25 -11 39 -25 14 -14 32 -25 40 -25 20 0 99 -31 107 -42 3 -4
50 -9 105 -10 54 -1 107 -6 117 -12 12 -8 22 -7 37 2 11 6 45 12 75 12 30 0
55 5 55 10 0 6 8 10 18 10 9 0 26 7 36 15 11 8 29 15 39 15 11 0 30 11 43 25
13 14 30 25 39 25 8 0 15 5 15 10 0 6 7 10 15 10 8 0 15 5 15 11 0 14 25 39
39 39 6 0 11 5 11 11 0 6 16 26 35 45 19 18 35 43 35 54 0 11 3 20 8 20 10 0
42 58 42 76 0 8 4 14 10 14 5 0 12 16 16 35 3 19 10 38 15 41 5 3 9 30 9 60 0
30 5 54 10 54 6 0 10 37 10 90 0 53 -4 90 -10 90 -6 0 -10 26 -10 59 0 33 -4
62 -9 65 -5 4 -12 25 -16 49 -4 23 -12 45 -17 48 -6 4 -7 16 -3 28 6 21 10 21
313 22 169 1 313 0 321 -1 8 -1 23 -13 33 -26 11 -13 26 -24 34 -24 8 0 14 -4
14 -10 0 -5 20 -10 45 -10 25 0 45 5 45 10 0 6 9 10 20 10 11 0 20 3 20 8 0 4
14 21 30 39 17 18 30 34 30 37 0 14 129 133 160 148 49 23 162 23 203 1z
m-1455 -228 c9 -16 20 -31 25 -33 4 -2 7 -13 7 -23 0 -11 6 -32 13 -47 22 -45
39 -162 34 -237 -7 -102 -39 -225 -59 -225 -5 0 -8 -8 -8 -18 0 -10 -22 -43
-50 -72 -27 -29 -50 -56 -50 -60 0 -4 -11 -13 -25 -20 -14 -7 -25 -17 -25 -22
0 -4 -11 -8 -25 -8 -14 0 -25 -4 -25 -9 0 -5 -11 -12 -25 -15 -14 -4 -25 -11
-25 -16 0 -6 -20 -10 -44 -10 -25 0 -48 -4 -51 -10 -3 -5 -42 -10 -85 -10 -63
0 -91 5 -136 25 -31 14 -65 25 -75 25 -11 0 -19 5 -19 10 0 6 -7 10 -15 10 -8
0 -15 4 -15 9 0 5 -10 13 -22 17 -12 4 -42 26 -65 50 -23 24 -47 44 -53 44 -5
0 -10 5 -10 10 0 6 -11 23 -25 38 -14 15 -25 32 -25 39 0 7 -4 13 -9 13 -5 0
-11 10 -15 23 -3 12 -14 32 -26 44 -12 14 -20 36 -20 57 0 19 -5 36 -10 38
-16 5 -26 108 -11 108 7 0 19 7 27 15 9 8 26 15 40 15 13 0 24 5 24 10 0 6 11
10 25 10 14 0 25 4 25 9 0 5 14 13 32 16 18 4 40 11 50 16 10 5 26 13 36 18
10 5 32 12 50 16 18 3 32 11 32 16 0 5 11 9 25 9 14 0 25 5 25 10 0 6 15 10
33 10 18 0 42 7 53 15 10 8 29 15 42 15 12 0 22 5 22 10 0 6 17 10 38 10 20 1
48 7 62 15 14 8 42 14 63 15 20 0 37 5 37 10 0 6 15 10 33 11 17 0 57 9 87 19
71 24 88 21 108 -15z m-1294 -470 c4 -14 11 -25 16 -25 6 0 10 -22 10 -49 0
-27 4 -51 10 -53 27 -9 25 -288 -2 -288 -4 0 -8 -22 -8 -50 0 -27 -4 -50 -10
-50 -5 0 -10 -6 -10 -13 0 -14 -84 -107 -97 -107 -5 0 -20 -11 -35 -25 -15
-14 -30 -25 -33 -25 -4 0 -13 -6 -20 -12 -36 -32 -46 -38 -65 -38 -11 0 -20
-4 -20 -9 0 -5 -15 -13 -32 -16 -18 -4 -37 -11 -43 -15 -5 -5 -33 -9 -61 -11
-57 -3 -78 10 -90 55 -3 14 -10 26 -15 26 -5 0 -9 16 -9 35 0 19 -4 35 -9 35
-4 0 -16 21 -26 48 -9 26 -28 69 -41 95 -13 27 -24 60 -24 73 0 13 -4 24 -8
24 -5 0 -17 26 -28 58 -10 31 -22 59 -25 62 -3 3 -9 22 -13 43 -6 30 -4 37 9
37 8 0 15 5 15 10 0 6 9 10 21 10 11 0 33 6 47 14 37 19 67 31 130 52 28 10
52 22 52 26 0 4 18 8 39 8 22 0 52 6 68 14 58 29 130 52 191 62 23 4 42 10 42
15 0 5 15 9 34 9 28 0 35 -4 40 -25z m-898 -309 c8 -8 14 -21 14 -28 0 -22 33
-108 42 -108 4 0 8 -15 8 -34 0 -19 3 -36 8 -38 11 -5 42 -76 42 -98 0 -11 3
-20 8 -20 13 0 30 -69 18 -73 -23 -8 -116 60 -116 86 0 4 -4 7 -10 7 -15 0
-50 38 -50 55 0 8 -4 15 -10 15 -5 0 -10 7 -10 15 0 8 -4 15 -10 15 -5 0 -12
11 -16 25 -3 14 -9 25 -13 25 -11 0 -31 63 -31 98 0 26 5 33 35 43 19 7 35 17
35 21 0 13 41 9 56 -6z m2160 -2054 c6 -4 14 -40 17 -81 3 -41 11 -79 17 -85
5 -5 10 -53 10 -108 0 -71 3 -98 13 -99 10 0 10 -2 0 -6 -15 -6 -18 -63 -3
-63 6 0 10 -58 10 -155 0 -97 -4 -155 -10 -155 -5 0 -10 -18 -10 -40 0 -22 5
-40 10 -40 6 0 10 -11 10 -25 0 -14 -4 -25 -10 -25 -5 0 -10 -6 -10 -13 0 -7
-11 -24 -25 -39 -14 -15 -25 -30 -25 -33 0 -10 -28 -35 -39 -35 -6 0 -11 -11
-11 -25 0 -16 -6 -25 -15 -25 -8 0 -15 -4 -15 -9 0 -4 -16 -25 -35 -45 -19
-21 -35 -41 -35 -46 0 -11 -81 -90 -92 -90 -11 0 -10 64 3 135 5 33 14 83 19
110 5 28 16 86 26 130 9 44 19 104 21 133 3 28 9 52 14 52 5 0 9 27 9 59 0 33
4 62 9 65 4 3 12 51 16 107 4 56 10 109 14 118 4 9 13 27 20 40 7 12 15 63 18
112 3 49 10 89 14 89 5 0 9 20 9 44 0 43 3 47 40 55 3 0 10 -3 16 -7z"/>
<path d="M3780 6030 c0 -5 -19 -10 -42 -10 -24 0 -52 -7 -62 -15 -11 -9 -41
-15 -68 -15 -26 0 -48 -4 -48 -9 0 -5 -20 -12 -45 -15 -24 -4 -47 -11 -50 -17
-4 -5 -15 -9 -26 -9 -10 0 -19 -4 -19 -10 0 -5 -4 -10 -10 -10 -5 0 -19 -8
-30 -17 -29 -25 -28 -92 3 -118 24 -21 96 -26 119 -8 7 6 30 13 51 17 20 4 37
11 37 16 0 6 20 10 44 10 24 0 46 4 48 9 2 6 79 18 171 28 155 16 171 19 198
44 16 14 29 33 29 42 0 33 -23 66 -51 72 -16 4 -29 11 -29 16 0 5 -49 9 -110
9 -67 0 -110 -4 -110 -10z"/>
<path d="M4178 4034 c-16 -8 -28 -19 -28 -24 0 -6 -5 -10 -10 -10 -6 0 -16 -5
-23 -10 -7 -6 -32 -29 -57 -50 -24 -22 -52 -40 -62 -40 -10 0 -18 -4 -18 -10
0 -5 -11 -10 -25 -10 -14 0 -25 -4 -25 -8 0 -10 -117 -72 -136 -72 -8 0 -14
-4 -14 -10 0 -5 -22 -10 -50 -10 -27 0 -50 -4 -50 -10 0 -5 -9 -10 -20 -10
-11 0 -20 5 -20 10 0 16 -38 12 -60 -7 -11 -10 -20 -25 -20 -35 0 -10 -4 -18
-10 -18 -5 0 -10 -11 -10 -25 0 -14 5 -25 10 -25 6 0 10 -7 10 -15 0 -8 6 -15
14 -15 8 0 16 -4 18 -10 5 -16 99 -30 138 -20 19 5 56 14 83 21 26 6 47 15 47
19 0 4 16 11 35 14 19 4 35 11 35 16 0 6 11 10 25 10 14 0 25 4 25 8 0 4 27
24 60 43 33 18 60 37 60 42 0 4 7 7 15 7 8 0 15 5 15 10 0 6 7 10 15 10 8 0
42 27 75 60 53 53 60 65 60 98 0 66 -51 104 -102 76z"/>
<path d="M3949 5312 c-20 -20 -39 -47 -43 -59 -4 -13 -12 -23 -17 -23 -5 0 -9
-11 -9 -25 0 -14 5 -25 10 -25 6 0 10 -10 10 -23 0 -21 20 -59 45 -82 35 -34
121 -45 172 -23 31 14 62 46 63 66 0 6 5 12 10 12 6 0 10 23 10 50 0 28 -4 50
-10 50 -5 0 -10 9 -10 21 0 24 -43 69 -83 87 -15 6 -47 12 -70 12 -35 -1 -48
-7 -78 -38z"/>
<path d="M2874 4919 c-3 -5 -12 -9 -19 -9 -8 0 -28 -13 -45 -30 -25 -24 -30
-37 -30 -75 0 -25 5 -45 10 -45 6 0 10 -13 10 -30 0 -32 30 -70 55 -70 8 0 15
-4 15 -10 0 -14 98 -12 116 3 45 37 64 60 64 77 0 10 5 31 12 45 9 19 9 28 0
37 -7 7 -12 20 -12 30 0 10 -7 18 -15 18 -8 0 -15 5 -15 11 0 15 -22 35 -48
43 -37 12 -92 15 -98 5z"/>
<path d="M8690 1680 c-8 -5 -35 -10 -60 -10 -25 0 -72 -7 -105 -15 -33 -8 -75
-15 -92 -15 -18 0 -33 -4 -33 -10 0 -5 -14 -10 -31 -10 -17 0 -43 -6 -57 -14
-15 -7 -40 -19 -57 -26 -16 -7 -42 -19 -57 -26 -14 -8 -33 -14 -42 -14 -9 0
-16 -4 -16 -10 0 -5 -13 -10 -30 -10 -16 0 -30 -4 -30 -10 0 -5 -11 -12 -25
-16 -14 -3 -25 -10 -25 -15 0 -5 -6 -9 -14 -9 -7 0 -25 -11 -40 -25 -15 -14
-36 -25 -47 -25 -10 0 -19 -3 -19 -8 0 -4 -16 -16 -35 -26 -19 -11 -35 -23
-35 -28 0 -4 -7 -8 -15 -8 -8 0 -15 -4 -15 -9 0 -5 -10 -13 -22 -17 -12 -3
-28 -12 -35 -18 -30 -27 -43 -36 -48 -36 -4 0 -21 -16 -39 -35 -19 -19 -36
-35 -39 -35 -6 0 -87 -81 -87 -87 0 -8 -28 -33 -37 -33 -4 0 -19 -14 -33 -32
-14 -17 -46 -53 -72 -78 -27 -26 -48 -51 -48 -54 0 -11 -27 -36 -38 -36 -5 0
-12 -8 -16 -17 -8 -26 -35 -66 -71 -106 -11 -13 -28 -36 -37 -53 -9 -16 -33
-47 -52 -68 -20 -20 -36 -44 -36 -52 0 -9 -16 -30 -35 -48 -19 -19 -35 -41
-35 -50 0 -9 -7 -19 -15 -22 -15 -6 -21 -44 -7 -44 16 0 370 178 478 241 253
145 523 336 764 539 137 116 427 399 469 458 20 29 21 32 4 32 -10 0 -25 -5
-33 -10z"/>
</g>
</svg>
